# Blender v2.79 (sub 0) OBJ File: ''
# www.blender.org
mtllib pool-stick.mtl
o poolstick.001
v 6.680110 17.039618 -6.268882
v 6.706462 17.039618 -6.119416
v 6.706462 16.951998 -6.119416
v 6.708505 16.995808 -6.107840
v 4.264480 17.018486 -5.679935
v 4.264995 16.995808 -5.677005
v 6.707989 17.018486 -6.110790
v 4.260537 17.057777 -5.702263
v 4.262953 17.039618 -5.688560
v 6.700890 17.071707 -6.151010
v 6.704047 17.057777 -6.133119
v 4.253727 17.080456 -5.740954
v 4.257380 17.071707 -5.720154
v 6.693275 17.083448 -6.194160
v 6.697217 17.080456 -6.171811
v 6.689334 17.080456 -6.216488
v 4.249786 17.083448 -5.763304
v 4.242171 17.071707 -5.806453
v 4.245845 17.080456 -5.785632
v 6.682524 17.057777 -6.255179
v 6.685681 17.071707 -6.237309
v 4.236601 17.039618 -5.838026
v 4.239015 17.057777 -5.824324
v 6.678582 17.018486 -6.277508
v 4.234557 16.995808 -5.849603
v 4.235072 17.018486 -5.846652
v 6.678582 16.973129 -6.277508
v 6.678066 16.995808 -6.280458
v 4.236601 16.951998 -5.838026
v 4.235072 16.973129 -5.846652
v 6.682524 16.933838 -6.255179
v 6.680110 16.951998 -6.268882
v 4.242171 16.919909 -5.806453
v 4.239015 16.933838 -5.824324
v 6.689334 16.911160 -6.216488
v 6.685681 16.919909 -6.237309
v 4.249786 16.908167 -5.763304
v 4.245845 16.911160 -5.785632
v 6.693275 16.908167 -6.194159
v 4.253727 16.911160 -5.740954
v 6.700890 16.919909 -6.151010
v 6.697217 16.911160 -6.171811
v 4.260537 16.933838 -5.702263
v 4.257380 16.919909 -5.720154
v 6.704047 16.933838 -6.133119
v 4.264480 16.973129 -5.679935
v 4.262953 16.951998 -5.688560
v 6.707989 16.973129 -6.110790
vt 0.512300 0.492900
vt 0.487700 0.492900
vt 0.487700 0.507100
vt -0.000000 -0.971600
vt 0.041700 -0.168400
vt -0.000000 -0.168400
vt 0.083300 -0.971600
vt 0.041700 -0.971600
vt 0.125000 -0.168400
vt 0.083300 -0.168400
vt 0.166700 -0.971600
vt 0.125000 -0.971600
vt 0.208300 -0.168400
vt 0.166700 -0.168400
vt 0.250000 -0.971600
vt 0.208300 -0.971600
vt 0.291700 -0.971600
vt 0.250000 -0.168400
vt 0.333300 -0.168400
vt 0.291700 -0.168400
vt 0.375000 -0.971600
vt 0.333300 -0.971600
vt 0.416700 -0.168400
vt 0.375000 -0.168400
vt 0.458300 -0.971600
vt 0.416700 -0.971600
vt 0.500000 -0.168400
vt 0.458300 -0.168400
vt 0.541700 -0.971600
vt 0.500000 -0.971600
vt 0.583300 -0.168400
vt 0.541700 -0.168400
vt 0.625000 -0.971600
vt 0.583300 -0.971600
vt 0.666700 -0.168400
vt 0.625000 -0.168400
vt 0.708300 -0.971600
vt 0.666700 -0.971600
vt 0.750000 -0.168400
vt 0.708300 -0.168400
vt 0.750000 -0.971600
vt 0.791700 -0.168400
vt 0.833300 -0.971600
vt 0.791700 -0.971600
vt 0.875000 -0.168400
vt 0.833300 -0.168400
vt 0.916700 -0.971600
vt 0.875000 -0.971600
vt 0.958300 -0.168400
vt 0.916700 -0.168400
vt 1.000000 -0.971600
vt 0.958300 -0.971600
vt 0.485800 0.500000
vt 0.486300 0.503700
vt 0.486300 0.496300
vt 0.490000 0.510000
vt 0.492900 0.512300
vt 0.496300 0.513700
vt 0.503700 0.513700
vt 0.500000 0.514200
vt 0.507100 0.512300
vt 0.510000 0.510000
vt 0.512300 0.507100
vt 0.513700 0.503700
vt 0.513700 0.496300
vt 0.514200 0.500000
vt 0.510000 0.490000
vt 0.507100 0.487700
vt 0.503700 0.486300
vt 0.500000 0.485800
vt 0.496300 0.486300
vt 0.492900 0.487700
vt 0.490000 0.490000
vt 1.000000 -0.168400
vn 0.9848 0.0000 -0.1737
vn 0.1736 0.0000 0.9848
vn 0.1677 0.2588 0.9513
vn 0.1504 0.4998 0.8530
vn 0.1677 0.2591 0.9512
vn 0.1228 0.7070 0.6965
vn 0.0868 0.8661 0.4923
vn 0.0450 0.9659 0.2551
vn 0.0868 0.8661 0.4922
vn -0.0000 1.0000 -0.0001
vn 0.0447 0.9660 0.2546
vn -0.0450 0.9659 -0.2550
vn -0.0000 1.0000 0.0000
vn -0.0868 0.8660 -0.4924
vn -0.0449 0.9659 -0.2549
vn -0.1228 0.7068 -0.6967
vn -0.0868 0.8661 -0.4923
vn -0.1504 0.4998 -0.8530
vn -0.1228 0.7071 -0.6964
vn -0.1677 0.2589 -0.9512
vn -0.1504 0.5002 -0.8527
vn -0.1736 0.0000 -0.9848
vn -0.1677 0.2592 -0.9512
vn -0.1677 -0.2587 -0.9513
vn -0.1737 0.0000 -0.9848
vn -0.1504 -0.4998 -0.8530
vn -0.1677 -0.2592 -0.9512
vn -0.1228 -0.7068 -0.6966
vn -0.1504 -0.5002 -0.8527
vn -0.0868 -0.8660 -0.4924
vn -0.1228 -0.7068 -0.6967
vn -0.0450 -0.9659 -0.2550
vn -0.0868 -0.8661 -0.4923
vn -0.0000 -1.0000 -0.0000
vn -0.0449 -0.9659 -0.2549
vn -0.0000 -1.0000 -0.0001
vn 0.0450 -0.9659 0.2550
vn 0.0868 -0.8661 0.4923
vn 0.1228 -0.7070 0.6964
vn 0.0868 -0.8661 0.4922
vn 0.1504 -0.5001 0.8528
vn 0.1228 -0.7070 0.6965
vn 0.1677 -0.2588 0.9513
vn 0.1504 -0.4998 0.8530
vn 0.9851 0.0000 -0.1723
vn 0.9847 0.0000 -0.1742
vn 0.9847 0.0003 -0.1742
vn 0.9848 -0.0001 -0.1737
vn 0.9848 -0.0003 -0.1738
vn 0.9848 -0.0002 -0.1736
vn 0.9848 0.0004 -0.1736
vn 0.9851 0.0017 -0.1722
vn 0.9846 -0.0009 -0.1747
vn 0.9847 0.0000 -0.1743
vn 0.9846 0.0009 -0.1747
vn 0.9851 -0.0017 -0.1722
vn 0.9848 0.0002 -0.1736
vn 0.9848 -0.0004 -0.1736
vn 0.9848 0.0003 -0.1738
vn 0.9848 0.0001 -0.1737
vn 0.9847 -0.0003 -0.1742
usemtl pool_stick_pattern
s 1
f 1/1/1 2/2/1 3/3/1
f 4/4/2 5/5/3 6/6/2
f 2/7/4 5/5/3 7/8/5
f 2/7/4 8/9/6 9/10/4
f 10/11/7 8/9/6 11/12/6
f 10/11/7 12/13/8 13/14/9
f 14/15/10 12/13/8 15/16/11
f 16/17/12 17/18/13 14/15/10
f 16/17/12 18/19/14 19/20/15
f 20/21/16 18/19/14 21/22/17
f 20/21/16 22/23/18 23/24/19
f 24/25/20 22/23/18 1/26/21
f 24/25/20 25/27/22 26/28/23
f 27/29/24 25/27/22 28/30/25
f 27/29/24 29/31/26 30/32/27
f 31/33/28 29/31/26 32/34/29
f 31/33/28 33/35/30 34/36/31
f 35/37/32 33/35/30 36/38/33
f 35/37/32 37/39/34 38/40/35
f 39/41/36 40/42/37 37/39/34
f 41/43/38 40/42/37 42/44/37
f 41/43/38 43/45/39 44/46/40
f 3/47/41 43/45/39 45/48/42
f 3/47/41 46/49/43 47/50/44
f 4/51/2 46/49/43 48/52/43
f 4/53/45 48/54/46 7/55/46
f 3/3/1 45/56/47 41/57/48
f 41/57/48 42/58/49 35/59/50
f 39/60/51 35/59/50 42/58/49
f 36/61/52 31/62/53 32/63/1
f 32/63/1 27/64/54 24/65/54
f 28/66/45 24/65/54 27/64/54
f 1/1/1 20/67/55 21/68/56
f 21/68/56 16/69/57 1/1/1
f 14/70/58 15/71/59 16/69/57
f 10/72/60 11/73/61 2/2/1
f 2/2/1 7/55/46 3/3/1
f 48/54/46 3/3/1 7/55/46
f 41/57/48 35/59/50 32/63/1
f 36/61/52 32/63/1 35/59/50
f 24/65/54 1/1/1 32/63/1
f 16/69/57 15/71/59 10/72/60
f 10/72/60 2/2/1 1/1/1
f 3/3/1 41/57/48 32/63/1
f 32/63/1 1/1/1 3/3/1
f 16/69/57 10/72/60 1/1/1
f 4/4/2 7/8/5 5/5/3
f 2/7/4 9/10/4 5/5/3
f 2/7/4 11/12/6 8/9/6
f 10/11/7 13/14/9 8/9/6
f 10/11/7 15/16/11 12/13/8
f 14/15/10 17/18/13 12/13/8
f 16/17/12 19/20/15 17/18/13
f 16/17/12 21/22/17 18/19/14
f 20/21/16 23/24/19 18/19/14
f 20/21/16 1/26/21 22/23/18
f 24/25/20 26/28/23 22/23/18
f 24/25/20 28/30/25 25/27/22
f 27/29/24 30/32/27 25/27/22
f 27/29/24 32/34/29 29/31/26
f 31/33/28 34/36/31 29/31/26
f 31/33/28 36/38/33 33/35/30
f 35/37/32 38/40/35 33/35/30
f 35/37/32 39/41/36 37/39/34
f 39/41/36 42/44/37 40/42/37
f 41/43/38 44/46/40 40/42/37
f 41/43/38 45/48/42 43/45/39
f 3/47/41 47/50/44 43/45/39
f 3/47/41 48/52/43 46/49/43
f 4/51/2 6/74/2 46/49/43
o poolstick
v 4.264480 17.018486 -5.679935
v -2.254566 16.995808 -4.582047
v 4.264995 16.995808 -5.677005
v 4.262953 17.039618 -5.688560
v -2.254773 17.004557 -4.583181
v 4.260537 17.057777 -5.702263
v -2.255351 17.012730 -4.586504
v 4.257380 17.071707 -5.720154
v -2.256299 17.019724 -4.591807
v -2.258921 17.028494 -4.606747
v -2.257518 17.025110 -4.598700
v 4.249786 17.083448 -5.763304
v 4.253729 17.080456 -5.740954
v -2.261975 17.028494 -4.623998
v -2.260448 17.029650 -4.615373
v 4.242171 17.071707 -5.806453
v 4.245846 17.080456 -5.785632
v 4.239015 17.057777 -5.824324
v -2.263378 17.025110 -4.632026
v 4.236601 17.039618 -5.838026
v -2.264595 17.019724 -4.638918
v -2.266123 17.004557 -4.647544
v -2.265545 17.012730 -4.644221
v 4.234557 16.995808 -5.849603
v 4.235073 17.018486 -5.846652
v -2.266123 16.987059 -4.647544
v -2.266329 16.995808 -4.648679
v 4.236601 16.951998 -5.838026
v 4.235073 16.973129 -5.846652
v 4.239015 16.933838 -5.824324
v -2.265545 16.978886 -4.644221
v 4.242171 16.919909 -5.806453
v -2.264595 16.971891 -4.638918
v -2.261975 16.963121 -4.623998
v -2.263378 16.966505 -4.632026
v 4.249786 16.908167 -5.763304
v 4.245846 16.911160 -5.785632
v -2.258921 16.963121 -4.606747
v -2.260448 16.961966 -4.615373
v 4.257380 16.919909 -5.720154
v 4.253729 16.911160 -5.740954
v -2.256299 16.971891 -4.591807
v -2.257518 16.966505 -4.598700
v 4.260537 16.933838 -5.702263
v -2.255351 16.978886 -4.586504
v 4.264480 16.973129 -5.679935
v 4.262953 16.951998 -5.688560
v -2.254773 16.987059 -4.583181
vt 0.041700 -0.168400
vt -0.000000 1.971600
vt -0.000000 -0.168400
vt 0.083300 -0.168400
vt 0.041700 1.971600
vt 0.125000 -0.168400
vt 0.083300 1.971600
vt 0.166700 -0.168400
vt 0.125000 1.971600
vt 0.208300 1.971600
vt 0.166700 1.971600
vt 0.250000 -0.168400
vt 0.208300 -0.168400
vt 0.291700 1.971600
vt 0.250000 1.971600
vt 0.333300 -0.168400
vt 0.291700 -0.168400
vt 0.375000 -0.168400
vt 0.333300 1.971600
vt 0.416700 -0.168400
vt 0.375000 1.971600
vt 0.458300 1.971600
vt 0.416700 1.971600
vt 0.500000 -0.168400
vt 0.458300 -0.168400
vt 0.541700 1.971600
vt 0.500000 1.971600
vt 0.583300 -0.168400
vt 0.541700 -0.168400
vt 0.625000 -0.168400
vt 0.583300 1.971600
vt 0.666700 -0.168400
vt 0.625000 1.971600
vt 0.708300 1.971600
vt 0.666700 1.971600
vt 0.750000 -0.168400
vt 0.708300 -0.168400
vt 0.791700 1.971600
vt 0.750000 1.971600
vt 0.833300 -0.168400
vt 0.791700 -0.168400
vt 0.875000 1.971600
vt 0.833300 1.971600
vt 0.875000 -0.168400
vt 0.916700 1.971600
vt 0.958300 -0.168400
vt 0.916700 -0.168400
vt 1.000000 1.971600
vt 0.958300 1.971600
vt 0.503900 0.496100
vt 0.496100 0.503900
vt 0.496100 0.496100
vt 1.000000 -0.168400
vt 0.495300 0.502700
vt 0.494700 0.501400
vt 0.494500 0.500000
vt 0.494700 0.498600
vt 0.495300 0.497300
vt 0.497300 0.495300
vt 0.498600 0.494700
vt 0.500000 0.494500
vt 0.501400 0.494700
vt 0.502700 0.495300
vt 0.504700 0.497300
vt 0.505300 0.498600
vt 0.505500 0.500000
vt 0.505300 0.501400
vt 0.503900 0.503900
vt 0.504700 0.502700
vt 0.502700 0.504700
vt 0.501400 0.505300
vt 0.500000 0.505500
vt 0.498600 0.505300
vt 0.497300 0.504700
vn 0.1597 0.2587 0.9527
vn 0.1657 -0.0000 0.9862
vn 0.1656 0.0000 0.9862
vn 0.1424 0.4998 0.8544
vn 0.1598 0.2583 0.9528
vn 0.1148 0.7069 0.6979
vn 0.1424 0.5003 0.8541
vn 0.0788 0.8661 0.4937
vn 0.1147 0.7073 0.6975
vn 0.0368 0.9660 0.2558
vn 0.0789 0.8657 0.4944
vn -0.0080 1.0000 0.0014
vn 0.0369 0.9659 0.2564
vn -0.0530 0.9658 -0.2540
vn -0.0080 1.0000 0.0012
vn -0.0948 0.8661 -0.4909
vn -0.0530 0.9659 -0.2535
vn -0.1309 0.7064 -0.6956
vn -0.0950 0.8655 -0.4918
vn -0.1584 0.4998 -0.8515
vn -0.1308 0.7071 -0.6949
vn -0.1758 0.2583 -0.9499
vn -0.1584 0.5006 -0.8511
vn -0.1817 0.0000 -0.9834
vn -0.1757 0.2592 -0.9497
vn -0.1758 -0.2583 -0.9499
vn -0.1816 0.0000 -0.9834
vn -0.1584 -0.4998 -0.8516
vn -0.1757 -0.2592 -0.9497
vn -0.1308 -0.7067 -0.6953
vn -0.1584 -0.5003 -0.8512
vn -0.0948 -0.8661 -0.4909
vn -0.1308 -0.7072 -0.6948
vn -0.0530 -0.9658 -0.2539
vn -0.0948 -0.8657 -0.4916
vn -0.0080 -1.0000 0.0013
vn -0.0530 -0.9659 -0.2535
vn 0.0370 -0.9658 0.2566
vn -0.0080 -1.0000 0.0015
vn 0.0788 -0.8661 0.4937
vn 0.0369 -0.9659 0.2564
vn 0.1148 -0.7075 0.6974
vn 0.0789 -0.8656 0.4944
vn 0.1148 -0.7069 0.6979
vn 0.1423 -0.5003 0.8541
vn 0.1597 -0.2587 0.9527
vn 0.1424 -0.4998 0.8544
vn 0.1597 -0.2582 0.9528
vn -0.9847 -0.0000 0.1740
vn -0.9848 -0.0001 0.1738
vn -0.9848 0.0000 0.1738
vn -0.9833 -0.0044 0.1817
vn -0.9849 0.0006 0.1732
vn -0.9847 0.0000 0.1745
vn -0.9849 -0.0006 0.1732
vn -0.9833 0.0044 0.1817
vn -0.9857 -0.0066 0.1685
vn -0.9849 0.0003 0.1733
vn -0.9847 -0.0017 0.1741
vn -0.9845 -0.0076 0.1753
vn -0.9849 0.0008 0.1730
vn -0.9832 -0.0046 0.1823
vn -0.9848 0.0005 0.1735
vn -0.9846 0.0000 0.1746
vn -0.9848 -0.0005 0.1736
vn -0.9832 0.0046 0.1823
vn -0.9848 -0.0006 0.1735
vn -0.9846 0.0075 0.1749
vn -0.9847 0.0017 0.1741
vn -0.9849 -0.0004 0.1733
vn -0.9857 0.0066 0.1685
usemtl wood_
s 1
f 49/75/62 50/76/63 51/77/64
f 52/78/65 53/79/66 49/75/62
f 54/80/67 55/81/68 52/78/65
f 56/82/69 57/83/70 54/80/67
f 56/82/69 58/84/71 59/85/72
f 60/86/73 58/84/71 61/87/74
f 60/86/73 62/88/75 63/89/76
f 64/90/77 62/88/75 65/91/78
f 66/92/79 67/93/80 64/90/77
f 68/94/81 69/95/82 66/92/79
f 68/94/81 70/96/83 71/97/84
f 72/98/85 70/96/83 73/99/86
f 72/98/85 74/100/87 75/101/88
f 76/102/89 74/100/87 77/103/90
f 78/104/91 79/105/92 76/102/89
f 80/106/93 81/107/94 78/104/91
f 80/106/93 82/108/95 83/109/96
f 84/110/97 82/108/95 85/111/98
f 84/110/97 86/112/99 87/113/100
f 88/114/101 86/112/99 89/115/102
f 88/114/101 90/116/103 91/117/104
f 92/118/105 93/119/106 90/116/103
f 94/120/107 93/119/106 95/121/108
f 94/120/107 50/122/63 96/123/109
f 69/124/110 90/125/111 57/126/112
f 49/75/62 53/79/66 50/76/63
f 52/78/65 55/81/68 53/79/66
f 54/80/67 57/83/70 55/81/68
f 56/82/69 59/85/72 57/83/70
f 56/82/69 61/87/74 58/84/71
f 60/86/73 63/89/76 58/84/71
f 60/86/73 65/91/78 62/88/75
f 64/90/77 67/93/80 62/88/75
f 66/92/79 69/95/82 67/93/80
f 68/94/81 71/97/84 69/95/82
f 68/94/81 73/99/86 70/96/83
f 72/98/85 75/101/88 70/96/83
f 72/98/85 77/103/90 74/100/87
f 76/102/89 79/105/92 74/100/87
f 78/104/91 81/107/94 79/105/92
f 80/106/93 83/109/96 81/107/94
f 80/106/93 85/111/98 82/108/95
f 84/110/97 87/113/100 82/108/95
f 84/110/97 89/115/102 86/112/99
f 88/114/101 91/117/104 86/112/99
f 88/114/101 92/118/105 90/116/103
f 92/118/105 95/121/108 93/119/106
f 94/120/107 96/123/109 93/119/106
f 94/120/107 51/127/64 50/122/63
f 93/128/113 96/129/114 90/125/111
f 50/130/115 53/131/116 57/126/112
f 55/132/117 57/126/112 53/131/116
f 59/133/118 58/134/119 57/126/112
f 63/135/120 62/136/121 67/137/122
f 67/137/122 69/124/110 63/135/120
f 71/138/123 70/139/124 69/124/110
f 75/140/125 74/141/126 81/142/110
f 79/143/127 81/142/110 74/141/126
f 83/144/128 82/145/129 87/146/130
f 87/146/130 86/147/131 81/142/110
f 91/148/132 90/125/111 86/147/131
f 96/129/114 50/130/115 90/125/111
f 57/126/112 58/134/119 69/124/110
f 63/135/120 69/124/110 58/134/119
f 70/139/124 75/140/125 69/124/110
f 81/142/110 83/144/128 87/146/130
f 86/147/131 90/125/111 81/142/110
f 50/130/115 57/126/112 90/125/111
f 69/124/110 75/140/125 81/142/110
f 81/142/110 90/125/111 69/124/110
